<svg width="1600" height="1200" viewBox="0 0 1600 1200" fill="none" xmlns="http://www.w3.org/2000/svg">
  <rect width="1600" height="1200" fill="#F8F2EA"/>
  <rect x="72" y="72" width="1456" height="1056" rx="44" fill="#FFFDF9" stroke="#E7DED3"/>
  <text x="120" y="152" fill="#A05A35" font-family="DM Sans, Arial, sans-serif" font-size="24" font-weight="700" letter-spacing="4">NAMU LOGO EXPLORATION</text>
  <text x="120" y="214" fill="#171514" font-family="DM Sans, Arial, sans-serif" font-size="64" font-weight="700" letter-spacing="-2">Concept 1: Woven Belonging</text>
  <text x="120" y="264" fill="#5E564F" font-family="DM Sans, Arial, sans-serif" font-size="28">Shared structure, human warmth, and the clearest expression of "ours."</text>

  <rect x="120" y="328" width="1360" height="336" rx="36" fill="#FFF8F1" stroke="#E9DED2"/>
  <text x="160" y="384" fill="#9C6A49" font-family="DM Sans, Arial, sans-serif" font-size="18" font-weight="700" letter-spacing="3">LIGHT BACKGROUND</text>
  <g transform="translate(170 430)">
    <g fill="#D6703F">
      <path d="M52 32H82V128H52C41 128 32 119 32 108V52C32 41 41 32 52 32Z"/>
      <path d="M180 32H210C221 32 230 41 230 52V108C230 119 221 128 210 128H180V32Z"/>
      <path d="M82 52C82 41 91 32 102 32H118L180 106V128H157L82 60V52Z"/>
      <path d="M82 128V106L144 32H170L95 128H82Z"/>
    </g>
    <text x="262" y="102" fill="#171514" font-family="DM Sans, Arial, sans-serif" font-size="60" font-weight="700" letter-spacing="-3">Namu</text>
  </g>

  <rect x="120" y="700" width="1360" height="336" rx="36" fill="#171514"/>
  <text x="160" y="756" fill="#CFA78B" font-family="DM Sans, Arial, sans-serif" font-size="18" font-weight="700" letter-spacing="3">DARK BACKGROUND</text>
  <g transform="translate(170 802)">
    <g fill="#D6703F">
      <path d="M52 32H82V128H52C41 128 32 119 32 108V52C32 41 41 32 52 32Z"/>
      <path d="M180 32H210C221 32 230 41 230 52V108C230 119 221 128 210 128H180V32Z"/>
      <path d="M82 52C82 41 91 32 102 32H118L180 106V128H157L82 60V52Z"/>
      <path d="M82 128V106L144 32H170L95 128H82Z"/>
    </g>
    <text x="262" y="102" fill="#F5EFE6" font-family="DM Sans, Arial, sans-serif" font-size="60" font-weight="700" letter-spacing="-3">Namu</text>
  </g>

  <text x="960" y="466" fill="#171514" font-family="DM Sans, Arial, sans-serif" font-size="30" font-weight="700">Why it works</text>
  <text x="960" y="514" fill="#5E564F" font-family="DM Sans, Arial, sans-serif" font-size="24">Separate forms become whole together.</text>
  <text x="960" y="552" fill="#5E564F" font-family="DM Sans, Arial, sans-serif" font-size="24">Feels rooted without becoming decorative.</text>
  <text x="960" y="590" fill="#5E564F" font-family="DM Sans, Arial, sans-serif" font-size="24">Best balance of icon strength and warmth.</text>

  <text x="960" y="838" fill="#F5EFE6" font-family="DM Sans, Arial, sans-serif" font-size="30" font-weight="700">Best use</text>
  <text x="960" y="886" fill="#D8CEC4" font-family="DM Sans, Arial, sans-serif" font-size="24">Primary logo system candidate.</text>
  <text x="960" y="924" fill="#D8CEC4" font-family="DM Sans, Arial, sans-serif" font-size="24">Strongest storytelling foundation.</text>
  <text x="960" y="962" fill="#D8CEC4" font-family="DM Sans, Arial, sans-serif" font-size="24">Recommended to refine next.</text>
</svg>
